<svg xmlns="http://www.w3.org/2000/svg" xml:space="preserve" id="discount-coupon" x="0" y="0" enable-background="new 0 0 512 512" version="1.1" viewBox="0 0 512 512">
  <path fill="#fc5692" fill-rule="evenodd" d="M496,310.144v82.844c0,8.262-6.738,15-15,15H31c-8.262,0-15-6.738-15-15v-82.844
			C42.742,306.6,63.373,283.711,63.373,256c0-27.711-20.631-50.6-47.373-54.145v-82.844c0-8.262,6.738-15,15-15h450
			c8.261,0,15,6.738,15,15v82.844c-26.742,3.545-47.373,26.433-47.373,54.145C448.627,283.711,469.258,306.6,496,310.144z" clip-rule="evenodd"></path>
  <path fill="#fb3580" fill-rule="evenodd" d="M496,310.144v82.844c0,8.262-6.738,15-15,15H31c-8.262,0-15-6.738-15-15v-15.001h424.999
			c8.261,0,15-6.738,15-15v-79.566C464.306,297.705,478.904,307.878,496,310.144L496,310.144z M17.9,202.145
			c-0.63-0.106-1.262-0.205-1.899-0.29v-3.278C16.676,199.74,17.309,200.93,17.9,202.145L17.9,202.145z M455.999,104.012H481
			c8.261,0,15,6.738,15,15v82.844c-17.096,2.266-31.694,12.439-40.001,26.723C455.999,187.056,455.999,145.534,455.999,104.012z" clip-rule="evenodd"></path>
  <path fill-rule="evenodd" d="M374.885,316.341c-8.209,0-14.896-6.691-14.896-14.901c0-8.223,6.687-14.91,14.896-14.91
		c8.223,0,14.91,6.687,14.91,14.91C389.795,309.65,383.108,316.341,374.885,316.341L374.885,316.341z M374.885,262.531
		c-21.446,0-38.896,17.45-38.896,38.91c0,21.451,17.45,38.9,38.896,38.9c21.465,0,38.914-17.45,38.914-38.9
		C413.8,279.981,396.35,262.531,374.885,262.531L374.885,262.531z M376.93,194.697c3.709-5.49,2.267-12.95-3.223-16.663
		c-5.49-3.713-12.949-2.271-16.658,3.214l-90.811,134.231c-3.709,5.49-2.267,12.95,3.218,16.663c2.059,1.4,4.401,2.059,6.711,2.059
		c3.85,0,7.629-1.852,9.952-5.268L376.93,194.697L376.93,194.697z M253.797,210.564c0-8.219,6.682-14.9,14.9-14.9
		c8.223,0,14.91,6.682,14.91,14.9c0,8.218-6.687,14.905-14.91,14.905C260.479,225.469,253.797,218.782,253.797,210.564
		L253.797,210.564z M307.607,210.564c0,21.455-17.46,38.905-38.91,38.905c-21.45,0-38.9-17.45-38.9-38.905
		c0-21.451,17.45-38.9,38.9-38.9C290.148,171.663,307.607,189.113,307.607,210.564L307.607,210.564z M179.808,282.879v35.682
		c0,6.621-5.372,11.998-12.002,11.998c-6.626,0-11.998-5.377-11.998-11.998v-35.682c0-6.63,5.372-12.002,11.998-12.002
		C174.437,270.877,179.808,276.249,179.808,282.879L179.808,282.879z M179.808,193.444v35.677c0,6.63-5.372,12.002-12.002,12.002
		c-6.626,0-11.998-5.372-11.998-12.002v-35.677c0-6.626,5.372-11.998,11.998-11.998
		C174.437,181.446,179.808,186.818,179.808,193.444L179.808,193.444z M483.999,319.791c-27.633-8.341-47.373-34.122-47.373-63.791
		c0-29.669,19.74-55.45,47.373-63.796v-73.192c0-1.626-1.371-3.002-3.002-3.002H179.808v23.679c0,6.625-5.372,11.998-12.002,11.998
		c-6.626,0-11.998-5.372-11.998-11.998v-23.679H30.997c-1.631,0-2.997,1.376-2.997,3.002v73.192
		C55.629,200.55,75.369,226.331,75.369,256c0,29.669-19.74,55.45-47.369,63.791v73.201c0,1.616,1.366,2.997,2.997,2.997h124.811
		v-23.68c0-6.63,5.372-11.998,11.998-11.998c6.63,0,12.002,5.367,12.002,11.998v23.68h301.189c1.63,0,3.002-1.381,3.002-2.997
		V319.791L483.999,319.791z M497.576,213.749c5.961-0.787,10.424-5.876,10.424-11.894v-82.843c0-14.886-12.111-27.002-27.002-27.002
		h-450c-14.891,0-26.997,12.116-26.997,27.002v82.843c0,6.018,4.458,11.107,10.414,11.894c21.074,2.794,36.954,20.96,36.954,42.251
		c0,21.295-15.881,39.461-36.954,42.251c-5.957,0.792-10.414,5.881-10.414,11.889v82.852c0,14.886,12.106,26.997,26.997,26.997h450
		c14.891,0,27.002-12.111,27.002-26.997V310.14c0-6.008-4.463-11.098-10.424-11.889c-21.069-2.79-36.949-20.956-36.949-42.251
		C460.626,234.71,476.507,216.544,497.576,213.749z" clip-rule="evenodd"></path>
</svg>
